<svg xmlns="http://www.w3.org/2000/svg" xmlns:xlink="http://www.w3.org/1999/xlink" width="20.079" height="15" viewBox="0 0 20.079 15">
  <defs>
    <clipPath id="clip-path">
      <rect id="Rectangle_776" data-name="Rectangle 776" width="20.079" height="15" fill="none"/>
    </clipPath>
  </defs>
  <g id="Group_622" data-name="Group 622" transform="translate(-808.395 -206.608)">
    <rect id="Rectangle_775" data-name="Rectangle 775" width="20.079" height="15" transform="translate(808.395 206.608)" fill="#0d97df"/>
    <g id="Group_372" data-name="Group 372" transform="translate(808.395 206.608)">
      <g id="Group_371" data-name="Group 371" transform="translate(0 0)" clip-path="url(#clip-path)">
        <g id="Group_370" data-name="Group 370" transform="translate(-1.292 -15.252)">
          <path id="Path_329" data-name="Path 329" d="M829.355,260.286l-.1.019-.094-.027c-.6-.453-.411-1.264-.824-1.8a6.5,6.5,0,0,0-2-1.525,32.938,32.938,0,0,1-2.746-2.06c-.533-.126-.557.221-.556.594a6.78,6.78,0,0,0,.318,1.5,63.878,63.878,0,0,1,1.337,9.829,1.87,1.87,0,0,0,.132.805,7,7,0,0,1,.583,5.033,12.084,12.084,0,0,0,.284,5.086c.11.471.569.559.857.835s.706.54.5,1.017c-.175.416-.6.392-.987.354a.836.836,0,0,0-.683.14c-.394.349-.8.531-1.284.163-.5-.383-.484-.856-.148-1.426-2.971-.025-5.843-.041-8.715-.024a1.194,1.194,0,0,0-.959.488c-.689.808-.916.831-1.651.14-.274-.258-.464-.347-.783-.123a.679.679,0,0,1-1.008-.084.84.84,0,0,1-.016-1.05c.12-.2.5-.382.011-.588l-.057-.084c1.531-.375.943-1.634,1.081-2.59.468.127.468.127.6.579a33,33,0,0,1-.7-7.1c.081-2.118-.613-4.162-.687-6.274a4.823,4.823,0,0,0-.237-2.218.378.378,0,0,1,0-.426c-.273-.374-.1-1.176-.619-1.168-.563.008-.716.765-.878,1.24-.517,1.514-1.316,2.9-1.886,4.391a3.366,3.366,0,0,1-1.046,1.487,2.465,2.465,0,0,1-.707.266.876.876,0,0,1-.461-.038,2.154,2.154,0,0,1-.4-.252c-.363-.306-1.135-.109-1.137-.832s.7-.776,1.162-.983a1.635,1.635,0,0,0,.979-1.066,35.134,35.134,0,0,0,1.69-5.624l-.016.018c.532-.909.969-1.872,1.552-2.753.383-.412.311-1.019.625-1.461.615-.848.29-1.806.318-2.722-.293-1-.35-2.05-.61-3.059a.869.869,0,0,1,.432-1.089c-.685.248-.774-.308-.97-.719a4.581,4.581,0,0,1-.184-.586c-.609-.08-.473-.55-.492-.939.136-.549.6-.493.994-.5a2.184,2.184,0,0,0,1.585-.6,3.867,3.867,0,0,0,2.22-2.265c.271-.754.876-.86,1.566-.854s1.385,0,1.7.8a2.977,2.977,0,0,0,3.511,2.1.8.8,0,0,1,.905.307l-.015.342a.957.957,0,0,1,.028.2c-.038,1.5-.038,1.5-1.617,1.832-.722.292-.722.292-.373.568.276.014.548.009.82.016a1.33,1.33,0,0,1,1.4,1.193,12.2,12.2,0,0,1,.266,2.915c.074.113-.052,0,.052.083,1.619,1.222,2.812,2.9,4.388,4.151.792.629,1.6,1.256,2.456,1.808.45.291,0-.246.182-.238a2.4,2.4,0,0,0,1.34-.921c.275-.481.83-.322,1.3-.267,1.088.694,1.088.88-.011,2.453.166.242.433.124.651.178.313.078.784,0,.758.485a.9.9,0,0,1-.88.842c-.343.043-.644-.245-1-.142a1.255,1.255,0,0,0-.68,1.33C829.762,259.726,829.9,260.18,829.355,260.286Z" transform="translate(-803.379 -217.368)" fill="#0d97df"/>
          <path id="Path_330" data-name="Path 330" d="M814.846,156.216a2.869,2.869,0,0,0-.139-1.83,13.153,13.153,0,0,0-.293-3.735l.013.026a2.042,2.042,0,0,1-.193-.894c.006-2.8-.5-5.583-.2-8.386.09-.475.169-1.054.786-1.009.531.039.67.571.844,1.043,1.21,3.289,1.283,6.843,2.4,10.154.377,1.114.542,1.314,1.742,1.239.068,0,.137,0,.205-.01,2.757-.316,2.754-.317,3.015-3.075.129-1.363.12-2.738.112-4.1a43.406,43.406,0,0,1,.674-6.211,2.062,2.062,0,0,1,.137-.6c.168-.361.405-.673.85-.6.4.065.538.408.573.764.2,1.977.7,3.9,1.047,5.845.441,2.487,1.074,4.933,1.531,7.417.193,1.052.07,1.384-.981,1.572-1.314.235-1.819,1.245-2.265,2.3a6.754,6.754,0,0,0-.493,1.673c-.123.873-.752.931-1.427,1.008s-1.309.136-1.637-.655a5.836,5.836,0,0,0-.944-1.583c-1.257-1.468-2.1-1.6-3.719-.575C815.955,156.185,815.443,156.511,814.846,156.216Z" transform="translate(-811.505 -137.038)" fill="#0d97df"/>
          <path id="Path_331" data-name="Path 331" d="M814.112,151.225c2.138-1.365,4.277-.521,5.119,2.112.2.637.319.928.994.6a.925.925,0,0,1,.5.01c.708.122.957-.106,1.077-.88a5.328,5.328,0,0,1,1.976-3.809,1.531,1.531,0,0,1,1.137-.308c.808.093,1-.549.691-.923-.6-.726-.422-1.566-.562-2.322-.35-1.88-.778-3.748-1.173-5.614a21.5,21.5,0,0,0-.862-4.035,4.651,4.651,0,0,1-.079-1.627c0-.288-.013-.59-.389-.589a.517.517,0,0,0-.524.529c-.142,1.878-.663,3.7-.682,5.609-.025,2.482-.335,4.962-.3,7.451.007.6-.437.712-.773.76-.9.127-1.8.228-2.7.376-1.485.245-1.657.06-2.016-1.685a45.12,45.12,0,0,1-1.123-4.6,23.289,23.289,0,0,0-.78-4.041,4.665,4.665,0,0,1-.455-1.44c.006-.3-.175-.831-.567-.892-.432-.067-.169.619-.548.73a45.565,45.565,0,0,0-.132,4.894c-.016.288.242.709-.276.849-.222-.977-.126-1.975-.376-2.982-.308-1.244.345-2.539.572-3.814.065-.367.325-.38.609-.4a.727.727,0,0,1,.83.457,24.816,24.816,0,0,1,1.3,3.877,42.081,42.081,0,0,0,1.517,6.519c.631,1.8.621,1.807,2.593,1.572,1.5-.179,1.3-.221,1.6-1.681.493-2.4.091-4.8.33-7.177a33.184,33.184,0,0,1,.958-5.663c.166-.591.6-.808,1.179-.416a1.946,1.946,0,0,1,.863,1.647c-.089,2.129.693,4.089,1.042,6.129.434,2.539,1.055,5.046,1.531,7.579.117.625.381.747.945.78a3.892,3.892,0,0,1,3.479,3.743c.314,3-1.5,4.132-4.005,5.127a2.659,2.659,0,0,0-1.308-.018c-1.589.051-2.5-.232-3.439-2.366-.165-.373-.3-.8-.755-.572-.609.3-1.531-.453-1.907.669a2.934,2.934,0,0,1-2.4,2.255l-.085-.114c.08-.574.612-.815.906-1.231.059-.075.122-.145.187-.214a3.287,3.287,0,0,0,.029-3.095,2.484,2.484,0,0,0-3.212-1.345C814.4,151.6,814.071,151.647,814.112,151.225Z" transform="translate(-809.341 -132.477)" fill="#070202"/>
          <path id="Path_332" data-name="Path 332" d="M835.627,335.544h1.349c-.285.47-.651.266-.874.41a.834.834,0,0,0-.422.865.517.517,0,0,0,.309.49c.4.134.524-.186.685-.451.123-.2.261-.434.546-.392.3.046.327.3.346.551a.583.583,0,0,0,.665.614.576.576,0,0,0,.612-.572c-.027-.7.41-.654.871-.635,2.493.1,4.988-.12,7.485.1.664.06,1.382-.086,2.116-.09-.08.6-1.239.861-.35,1.56.106.084.292.241.326.215a4.237,4.237,0,0,1,2.36-.729c.263-.024-.186-.6-.353-.633-1.474-.317-1.236-1.634-1.326-2.539a21.931,21.931,0,0,1,.087-4.683c.144-1.239.3-2.631-.758-3.7a.656.656,0,0,1-.116-.476,14.445,14.445,0,0,0-.313-4.163c-.394-2.174-.226-4.449-1.1-6.529-.225-.536-.058-1.075-.207-1.6a.616.616,0,0,1,.3-.793c.328-.126.583.091.752.382.072.237-.03.314-.255.278-.419.118-.393.455-.3.745a30.926,30.926,0,0,1,1.3,7.074,28.868,28.868,0,0,1,.32,2.918c-.011.4.146.865.761.573.2-.054.278.066.34.219a2.244,2.244,0,0,1-.107.9,25.9,25.9,0,0,0,.257,3.828,11.451,11.451,0,0,1,.927-2.5,4.178,4.178,0,0,1,1.352-1.5,1.876,1.876,0,0,0,1.056-1.012,9.182,9.182,0,0,1,1.672-1.137,3.6,3.6,0,0,0,.677-.215c.349-.206.942-.218.813-.853-.092-.455-.937-.8-1.457-.623-.288.1-.51.338-.811.42a4.031,4.031,0,0,1-.6.117c-.338.015-.779.278-.848-.352,1.135-.616,2.213-1.413,3.64-.812a1.834,1.834,0,0,1,1.32,1.621c.019.7-.657.814-1.208,1.029a9.264,9.264,0,0,0-5.146,4.446c-.439.879-.356,2.052-.917,2.926a7.008,7.008,0,0,0-.778,3.819,1.463,1.463,0,0,0,.987,1.566c.508.2,1.015.331.939.976-.078.663-.662.959-1.2,1.112-.41.117-.844.175-1.268.3-1.009.292-1.49-.007-1.911-1.085-.084-.216-.162-.381-.4-.381q-3.745-.011-7.49-.012c-.282,0-.51.02-.653.349-.429.98-1.057,1.156-2.03.629-.252-.137-.461-.39-.827-.211a1.165,1.165,0,0,1-1.674-.476C834.686,336.673,835.069,336.062,835.627,335.544Z" transform="translate(-828.174 -275.329)" fill="#0c0403"/>
          <path id="Path_333" data-name="Path 333" d="M805.011,333.024a28.782,28.782,0,0,0,2.637-5.441c.229-.524.421-1.068.7-1.565.13-.235.214-.689.586-.59a.916.916,0,0,1,.681.818,7.715,7.715,0,0,1-.036.922l-.788-.624c-.738,1.612-1.547,3.291-2.272,5.005-.276.654-.771,1.236-.426,2.133.233.606-.4,1.069-1.016.707s-.922-.082-1.142.347c-.3.579-.746.427-1.114.272-.429-.18-.283-.521-.145-.919.15-.433.407-.933-.3-1.378-.5-.318-.19-1.27.25-1.325,1.731-.215,1.944-1.617,2.325-2.8a15.127,15.127,0,0,0,1.1-3.831c0-.06.149-.112.228-.168.354,1.242-.432,2.276-.639,3.416a7.359,7.359,0,0,1-.612,1.807c-.394.831-.634,1.84-1.865,1.9a.611.611,0,0,0-.584.61c.037.366.423.234.672.252.3.023.651-.04.584.451a.95.95,0,0,1-.191.555c.186-.066.222-.3.414-.321l.364-.042a.355.355,0,0,1,.384,0C805.246,333.56,804.84,332.966,805.011,333.024Z" transform="translate(-802.117 -285.064)" fill="#0e0809"/>
          <path id="Path_334" data-name="Path 334" d="M838.019,339.2c.2.139.452.314.4.554a9.951,9.951,0,0,0,.346,3.407c.347,2.689.452,5.38.66,8.071a27.933,27.933,0,0,0,.51,4.1c.061.265.213.82-.254.839-.51.021-.224-.517-.307-.8-.111-.384.281-.915-.335-1.152-.014-.031-.042-.063-.04-.093.094-1.965-.483-3.88-.407-5.849a28.317,28.317,0,0,0-.588-6.315A14.037,14.037,0,0,1,838.019,339.2Z" transform="translate(-830.563 -296.666)" fill="#0e0707"/>
          <path id="Path_335" data-name="Path 335" d="M816,232.113c-.159.7-.708.805-1.3.846-.462.032-.95-.118-1.371.2-1.845-.137-2.694-1.529-3.065-2.975-.378-1.473.441-2.819,1.566-3.872a.322.322,0,0,1,.52.152c.041.6-.409.984-.659,1.451a2.635,2.635,0,0,0,.384,3.527,2.3,2.3,0,0,0,2.876.516,1.214,1.214,0,0,1,.6-.088.693.693,0,0,1,.414.21Z" transform="translate(-808.511 -206.942)" fill="#0f0c0c"/>
          <path id="Path_336" data-name="Path 336" d="M877.424,263.648a16.933,16.933,0,0,1-.326-2.623c-.318-1.444-.29-1.448-1.77-1.472-.239,0-.477-.03-.716-.047.1-.978.928-.432,1.346-.731-.231-.058-.575-.012-.783-.285.754-.363.967-.58,1.807-1.852l.624.185c.23-.081.273.033.238.228-.239.137-.693.084-.576.549.091.361.437.256.7.258.569.006,1.139-.011,1.709-.008.049,0,.1.079.2.165-.647.041-1.249.047-1.84.131-.316.045-.771.13-.727.56a.729.729,0,0,0,.844.7,1.5,1.5,0,0,1,1,.1.5.5,0,0,1-.732.186c-.966-.137-.995.4-.844,1.125a3.633,3.633,0,0,1,.1,2.3C877.694,263.338,877.882,263.641,877.424,263.648Z" transform="translate(-859.697 -231.094)" fill="#0e0c0e"/>
          <path id="Path_337" data-name="Path 337" d="M888.281,288.633a.617.617,0,0,0,.246-.537c.186.772.878,1.085,1.447,1.442a3.6,3.6,0,0,1,1.031.794c1.192,1.617,2.984,2.52,4.438,3.821.14.1.279.193.419.286s.327.186.227.39c-.131.268-.324.115-.515.045-.98-.364-1.552-1.315-2.488-1.73a5.8,5.8,0,0,1-2.32-2.333,5.807,5.807,0,0,0-2.047-1.674A.717.717,0,0,1,888.281,288.633Z" transform="translate(-870.554 -256.079)" fill="#140c0d"/>
          <path id="Path_338" data-name="Path 338" d="M932.911,315.234c.512-.176,1.033.8,1.568-.047.29-.457.212-.615-.286-.634-.434-.017-.869,0-1.3,0-.072-.584.475-.572.572-.865.182-.546,1.235-1.178-.1-1.644-.006,0,.05-.18.076-.276,1.024.048,1.306.489.9,1.411-.2.459-.667.992.373,1.031a.483.483,0,0,1,.427.6c-.145.5-.249,1.144-.831,1.287a1.29,1.29,0,0,1-1.414-.216A.581.581,0,0,1,932.911,315.234Z" transform="translate(-905.92 -274.877)" fill="#161316"/>
          <path id="Path_339" data-name="Path 339" d="M825.3,264.459c.273.086.544.243.524.538-.047.7.375.784,1.006.712-.674.481-.738.757-.42,1.571a4.758,4.758,0,0,1,.422,2.575.4.4,0,0,1-.482.039,4.436,4.436,0,0,1-.362-1.851c-.519-.3-.119-.9-.4-1.275l-.609-.418q-.109-.068-.08-.146t.063-.081c.625-.594.5-.955-.338-1.061Z" transform="translate(-819.993 -237.305)" fill="#0d0a0c"/>
          <path id="Path_340" data-name="Path 340" d="M900.257,314.645l.255-.278a28.461,28.461,0,0,0,3.949,2.762,4.663,4.663,0,0,1,.777.775c.1.264.114.48-.266.472C903.541,316.955,901.578,316.206,900.257,314.645Z" transform="translate(-880.066 -276.945)" fill="#161012"/>
          <path id="Path_341" data-name="Path 341" d="M813.435,158.471c.381-1.526.054-3.077.172-4.612.029-.384-.165-.822.235-1.131-.02,2.045-.308,4.076.2,6.133a13.169,13.169,0,0,1-.018,3.339c-.446-.291-.362-.756-.4-1.189A13,13,0,0,0,813.435,158.471Z" transform="translate(-811.106 -148.561)" fill="#2a1d1b"/>
          <path id="Path_342" data-name="Path 342" d="M910.579,360.438l-.217-.232c.647-1.437,2.007-2.016,3.267-2.715.27.427.607.085.914.079-.142.923-1.107.825-1.609,1.3a2.046,2.046,0,0,0-1.218.814C911.362,359.973,911.148,360.475,910.579,360.438Z" transform="translate(-888.092 -311.196)" fill="#241d19"/>
          <path id="Path_343" data-name="Path 343" d="M832.975,290.731l.482-.039c-.046.944.574,1.993-.438,2.784l-.054-.07Z" transform="translate(-826.618 -258.141)" fill="#26343f"/>
          <path id="Path_344" data-name="Path 344" d="M823.93,310.8c-.617.846-.749,2-1.684,2.645-.043-1.223.979-1.92,1.433-2.9C823.889,310.509,824,310.568,823.93,310.8Z" transform="translate(-818.104 -273.904)" fill="#241c1e"/>
          <path id="Path_345" data-name="Path 345" d="M816,198.638a.727.727,0,0,1,.435.83c-.08.967.284,1.957-.143,2.9A12.794,12.794,0,0,1,816,198.638Z" transform="translate(-813.092 -185.026)" fill="#1c0606"/>
          <path id="Path_346" data-name="Path 346" d="M929.387,328.63q-.006.321-.012.642c-.555.315-.264.848-.315,1.284s-.048.866-.689.635a.652.652,0,0,0,.208-.647A2.088,2.088,0,0,1,929.387,328.63Z" transform="translate(-902.396 -288.273)" fill="#283541"/>
          <path id="Path_347" data-name="Path 347" d="M892.348,270.749l.732-.186c.593.39,1.441-.063,1.966.608-1,.246-1.886-.383-2.85-.327-.011,0-.025-.059-.038-.091Z" transform="translate(-873.634 -242.153)" fill="#141414"/>
          <path id="Path_348" data-name="Path 348" d="M823.849,275.691c.429.332.119.9.4,1.275-.64-.135-1.106.639-1.814.319C822.747,276.61,824.284,276.992,823.849,275.691Z" transform="translate(-818.255 -246.226)" fill="#292a2a"/>
          <path id="Path_349" data-name="Path 349" d="M819.673,272.554l.017.227c-.5.423-1.152.387-1.725.611A2.046,2.046,0,0,1,819.673,272.554Z" transform="translate(-814.705 -243.734)" fill="#454545"/>
          <path id="Path_350" data-name="Path 350" d="M818.673,224.462c-.086-.195-.265-.215-.443-.239a.559.559,0,0,1,.026-.189l1.429-.429c.149.249.422.154.634.227C819.966,224.551,819.31,224.482,818.673,224.462Z" transform="translate(-814.914 -204.855)" fill="#2c2a2e"/>
          <path id="Path_351" data-name="Path 351" d="M923.174,332.029c.218-.085.219-.291.266-.472l.613,1.952C923.118,333.4,923.609,332.438,923.174,332.029Z" transform="translate(-898.268 -290.598)" fill="#354754"/>
          <path id="Path_352" data-name="Path 352" d="M829.467,305.516l-.25-.252a4.7,4.7,0,0,1,.771-1.381l.055.071A3.273,3.273,0,0,1,829.467,305.516Z" transform="translate(-823.641 -268.618)" fill="#2b313a"/>
          <path id="Path_353" data-name="Path 353" d="M889.405,257.042l-.238-.228a3.565,3.565,0,0,1,1.973-.1C890.6,257.01,889.932,256.693,889.405,257.042Z" transform="translate(-871.257 -231.084)" fill="#4b4b4b"/>
          <path id="Path_354" data-name="Path 354" d="M860.457,329.177a45.991,45.991,0,0,1-.085-6.626c.013-1.5-.1-3-.145-4.494-.014-.476.009-.953.015-1.429.316-.073.484.1.606.357a41.19,41.19,0,0,1,.2,5.928c-.174,1.844,0,3.7-.089,5.546C860.874,328.757,860.911,329.139,860.457,329.177Z" transform="translate(-848.267 -278.727)" fill="#202623"/>
          <path id="Path_355" data-name="Path 355" d="M851.93,257.894l-.053.016-.051-.021c-.512-.042-.512-.042-.282-.885a4.828,4.828,0,0,1-.058-.813c.047-.507-.021-.866-.648-.9-.532-.03-.742-.377-.762-.9a.938.938,0,0,1,.753-1.062,3.536,3.536,0,0,1,1.414-.023c.705.145.882.8.229,1.513a2.253,2.253,0,0,0-.28,2.824C852.225,257.853,852.186,257.987,851.93,257.894Z" transform="translate(-840.207 -228.399)" fill="#1a0809"/>
          <path id="Path_356" data-name="Path 356" d="M857.737,308.04l-.491-.244c-.2-.431-.37-.88-.605-1.29-.435-.759-.078-.966.624-.973.17,0,.34-.012.51-.018,2.26-.081,2.26-.081,1.513,2.076-.183.207.057.651-.4.708A1.969,1.969,0,0,1,857.737,308.04Z" transform="translate(-845.273 -269.895)" fill="#101617"/>
          <path id="Path_357" data-name="Path 357" d="M867.569,316.317l.351-.618c.325,3.11,1.049,6.154,1.521,9.239a.4.4,0,0,1-.332.1.665.665,0,0,1-.4-.555q-.771-3.646-1.366-7.324A.784.784,0,0,1,867.569,316.317Z" transform="translate(-853.905 -278.003)" fill="#233841"/>
          <path id="Path_358" data-name="Path 358" d="M875.3,360.645l.335-.04a8.571,8.571,0,0,1,.173,5.416.842.842,0,0,1-.414-.557,12.031,12.031,0,0,0-.252-4.144A.756.756,0,0,1,875.3,360.645Z" transform="translate(-860.099 -313.67)" fill="#273d46"/>
          <path id="Path_359" data-name="Path 359" d="M846.439,271.513c.217.256-.376.77.282.885-.662.459-1.284,1.052-2.192.814a1.04,1.04,0,0,1-.882-.839C844.984,273.146,845.93,272.9,846.439,271.513Z" transform="translate(-835.103 -242.908)" fill="#091c29"/>
          <path id="Path_360" data-name="Path 360" d="M874.484,265.512a1.35,1.35,0,0,1,.4.019c.363.131,1.064-.357,1.059.3-.005.583-.72.2-1.1.328-.316.106-.775-.166-.923.366C873.579,265.89,873.707,265.66,874.484,265.512Z" transform="translate(-859.006 -238.115)" fill="#4998ca"/>
          <path id="Path_361" data-name="Path 361" d="M859.093,273.534l.262-.251a1.872,1.872,0,0,0,2.715-.346C861.607,274.343,860.492,274.513,859.093,273.534Z" transform="translate(-847.371 -244.039)" fill="#091c29"/>
          <path id="Path_362" data-name="Path 362" d="M861.365,375.13c.251-.158.154-.445.244-.662a.427.427,0,0,1,.373.421,9.482,9.482,0,0,0,.889,2.366.345.345,0,0,1-.275.326A3,3,0,0,1,861.365,375.13Z" transform="translate(-849.175 -324.68)" fill="#314e58"/>
          <path id="Path_363" data-name="Path 363" d="M867.35,385.687l.242-.226a1.6,1.6,0,0,0,1.837-.787l.21.464C869.112,386.564,868.692,386.665,867.35,385.687Z" transform="translate(-853.929 -332.787)" fill="#243940"/>
          <path id="Path_364" data-name="Path 364" d="M808.444,365.805a1.647,1.647,0,0,1-.575,1c-.023.018-.214-.085-.22-.144-.052-.484.307-.763.573-1.088Z" transform="translate(-806.506 -317.615)" fill="#564943"/>
          <path id="Path_365" data-name="Path 365" d="M813.892,365.587l.636.828c-.741.274-.713-.688-1.23-.639Z" transform="translate(-810.998 -317.627)" fill="#4f4846"/>
          <path id="Path_366" data-name="Path 366" d="M839.543,264.553a3.631,3.631,0,0,1-2.206.028A3.8,3.8,0,0,1,839.543,264.553Z" transform="translate(-830.091 -237.261)" fill="#170706"/>
          <path id="Path_367" data-name="Path 367" d="M873.225,218.419c.323,2.839-3.568,4.431-5.264,3.988a3.808,3.808,0,0,1-1.952-2.986,10.229,10.229,0,0,1,.6-2.615,1.359,1.359,0,0,1,.739-.845c.834-.428,1.724-.689,2.582-1.033.79-.317,2.666.768,2.927,1.725C873.021,217.247,873.5,217.805,873.225,218.419Z" transform="translate(-852.862 -197.92)" fill="#fcfcfc"/>
          <path id="Path_368" data-name="Path 368" d="M815.207,224.538l1.646-.631c1.611-.49,2.381-.151,3.277,1.442a3.516,3.516,0,0,1-.187,3.5h0c-.176.064-.273-.037-.356-.168-.118-.244-.115-.526-.23-.771a.9.9,0,0,0-.956-.593.862.862,0,0,0-.808.776.9.9,0,0,0,.556.98,3.913,3.913,0,0,1,.74.314c.186.418-.191.49-.405.663-.948.268-1.849.7-2.885.145A3.17,3.17,0,0,1,814.1,226.3,5.442,5.442,0,0,1,815.207,224.538Z" transform="translate(-811.449 -204.932)" fill="#fbfbfb"/>
          <path id="Path_369" data-name="Path 369" d="M843.4,235.219a4.877,4.877,0,0,0,.187-3.5A2.9,2.9,0,0,1,843.4,235.219Z" transform="translate(-834.909 -211.298)" fill="#b2aba7"/>
          <path id="Path_370" data-name="Path 370" d="M836.3,249.013l.419-.619a.9.9,0,0,1,.806-.824l.235.242c-.157.569-.86.668-1.044,1.214Z" transform="translate(-829.27 -223.891)" fill="#b2aba7"/>
          <path id="Path_371" data-name="Path 371" d="M910.5,368.707l.931-.806c.645.456,1.566.612,1.726,1.593A9.883,9.883,0,0,0,911.9,371c-.846-.165-1.043-1.046-1.639-1.486C910.219,369.207,910.622,369.034,910.5,368.707Z" transform="translate(-888.009 -319.465)" fill="#e8cd5a"/>
          <path id="Path_372" data-name="Path 372" d="M909.925,375.722c.966.032.988,1.106,1.64,1.485l-1.159,3.13C910.3,378.788,909.586,377.308,909.925,375.722Z" transform="translate(-887.673 -325.677)" fill="#48a2da"/>
          <path id="Path_373" data-name="Path 373" d="M932.66,355.5c.614-.843,1.37-.689,2.147-.292a.876.876,0,0,1,.56.787.767.767,0,0,1-.6.732c-.4.15-.773.462-1.253.323C932.9,356.719,932.236,356.408,932.66,355.5Z" transform="translate(-905.695 -309.132)" fill="#3caaee"/>
          <path id="Path_374" data-name="Path 374" d="M917.668,365.779c-.394-.728-1.429-.761-1.726-1.594a1.54,1.54,0,0,1,1.377-.962c1.029.018,1.183.843,1.446,1.567A1.121,1.121,0,0,1,917.668,365.779Z" transform="translate(-892.524 -315.75)" fill="#40abec"/>
          <path id="Path_375" data-name="Path 375" d="M924.08,360.537c-.628-.387-.667-1.318-1.446-1.567.436-.542,1.227-.549,1.656-1.1h.514c-.129.743.537,1.05.85,1.55C925.244,359.953,924.531,360.061,924.08,360.537Z" transform="translate(-897.839 -311.496)" fill="#e7ce61"/>
          <path id="Path_376" data-name="Path 376" d="M865.424,331.451c-.492,1.336-.6,1.38-1.838.787-.867-.768-.959-1.866-1.228-2.887-.077-3.577.188-7.156-.047-10.733a5.887,5.887,0,0,1,.078-.91c.405.016.842-.188,1.2.169.356,2.915.931,5.791,1.538,8.661A12.246,12.246,0,0,1,865.424,331.451Z" transform="translate(-849.924 -279.564)" fill="#f7e596"/>
          <path id="Path_377" data-name="Path 377" d="M853.9,256.544c.264.025.6-.01.531.406-.06.357-.352.465-.682.473-.313.008-.526-.1-.509-.461C853.258,256.5,853.6,256.559,853.9,256.544Z" transform="translate(-842.718 -231.018)" fill="#9e3b3a"/>
          <path id="Path_378" data-name="Path 378" d="M860.964,307.426c.369.085.978-.395.954.317-.016.481.062,1.213-.807,1.313a1.019,1.019,0,0,1-1.226-1.049C859.8,307.093,860.643,307.681,860.964,307.426Z" transform="translate(-847.995 -271.368)" fill="#e9d78c"/>
          <path id="Path_379" data-name="Path 379" d="M871.342,236.067a1.306,1.306,0,0,1,1.216-1.382,1.29,1.29,0,0,1,1.247,1.347,1.236,1.236,0,0,1-1.162,1.318A1.267,1.267,0,0,1,871.342,236.067Z" transform="translate(-857.099 -213.657)" fill="#040404"/>
          <path id="Path_380" data-name="Path 380" d="M832.737,241.289l-.806.824c-1.258,0-1.962-.773-1.534-1.691a1.133,1.133,0,0,1,1.311-.732A1.266,1.266,0,0,1,832.737,241.289Z" transform="translate(-824.478 -217.609)" fill="#030303"/>
        </g>
      </g>
    </g>
    <path id="Path_381" data-name="Path 381" d="M815.346,206.608v2.642a14.841,14.841,0,0,0,1.6-.578c.026-.079,9.429-1.156,9.429-1.156l2.03.3a2.5,2.5,0,0,1,1.319-.251c.564.121.591-.96.591-.96Z" transform="translate(-5.36)" fill="#0d97df"/>
  </g>
</svg>
