<svg xmlns="http://www.w3.org/2000/svg" xmlns:xlink="http://www.w3.org/1999/xlink" width="248" height="47.711" viewBox="0 0 248 47.711">
  <defs>
    <clipPath id="clip-path">
      <rect id="Rectangle_776" data-name="Rectangle 776" width="60.236" height="45" fill="none"/>
    </clipPath>
  </defs>
  <g id="Group_626" data-name="Group 626" transform="translate(-140 -35.289)">
    <text id="_2COOL_2Q" data-name="2COOL 2Q" transform="translate(224 72)" fill="#fff" font-size="32" font-family="Poppins-SemiBold, Poppins" font-weight="600" letter-spacing="0.024em"><tspan x="0" y="0">2COOL 2Q</tspan></text>
    <g id="Group_373" data-name="Group 373" transform="translate(-668.396 -168.608)">
      <rect id="Rectangle_775" data-name="Rectangle 775" width="60.236" height="45" transform="translate(808.395 206.608)" fill="#0d97df"/>
      <g id="Group_372" data-name="Group 372" transform="translate(808.395 206.608)">
        <g id="Group_371" data-name="Group 371" transform="translate(0 0)" clip-path="url(#clip-path)">
          <g id="Group_370" data-name="Group 370" transform="translate(-3.875 -45.756)">
            <path id="Path_329" data-name="Path 329" d="M880.652,302.142l-.287.057-.281-.08c-1.8-1.358-1.234-3.792-2.473-5.4-1.565-2.094-3.871-3.282-6.006-4.575a98.806,98.806,0,0,1-8.237-6.181c-1.6-.378-1.671.662-1.667,1.783a20.356,20.356,0,0,0,.954,4.507,191.621,191.621,0,0,1,4.01,29.486,5.611,5.611,0,0,0,.395,2.415c2.7,4.8,2.806,9.755,1.749,15.1-1,5.049-.324,10.217.852,15.258.33,1.412,1.708,1.678,2.57,2.506s2.117,1.62,1.515,3.052c-.525,1.247-1.807,1.176-2.96,1.063a2.507,2.507,0,0,0-2.048.42c-1.182,1.046-2.4,1.594-3.852.489-1.511-1.149-1.454-2.568-.443-4.279-8.914-.074-17.529-.122-26.144-.073a3.582,3.582,0,0,0-2.877,1.465c-2.068,2.425-2.747,2.492-4.952.42-.823-.775-1.393-1.041-2.349-.37a2.037,2.037,0,0,1-3.025-.251,2.519,2.519,0,0,1-.047-3.151c.362-.587,1.486-1.147.033-1.763l-.171-.252c4.593-1.124,2.829-4.9,3.243-7.77,1.4.382,1.4.382,1.814,1.737-1.228-6.849-2.383-13.985-2.1-21.294.244-6.354-1.839-12.485-2.062-18.822-.077-2.2.408-4.537-.712-6.654a1.133,1.133,0,0,1,.01-1.277c-.819-1.121-.3-3.527-1.856-3.505-1.691.025-2.147,2.294-2.635,3.721-1.552,4.543-3.949,8.705-5.657,13.173a10.1,10.1,0,0,1-3.137,4.461,7.394,7.394,0,0,1-2.122.8,2.628,2.628,0,0,1-1.382-.114,6.46,6.46,0,0,1-1.2-.755c-1.088-.917-3.406-.327-3.411-2.5s2.107-2.327,3.486-2.95a4.9,4.9,0,0,0,2.937-3.2c1.876-5.571,4.137-11.019,5.071-16.871l-.048.054c1.6-2.728,2.907-5.616,4.656-8.258,1.149-1.237.933-3.058,1.876-4.384,1.844-2.544.869-5.418.956-8.167-.88-3.006-1.049-6.151-1.831-9.177a2.607,2.607,0,0,1,1.3-3.268c-2.054.744-2.322-.924-2.909-2.157a13.712,13.712,0,0,1-.551-1.757c-1.828-.24-1.42-1.65-1.476-2.818.409-1.647,1.809-1.479,2.982-1.512a6.554,6.554,0,0,0,4.756-1.805,11.6,11.6,0,0,0,6.66-6.8c.812-2.262,2.629-2.58,4.7-2.561,2.1.02,4.155,0,5.111,2.412,1.9,4.786,5.256,7.1,10.532,6.308.953-.142,2.083-.178,2.716.92l-.046,1.025a2.888,2.888,0,0,1,.084.6c-.114,4.513-.115,4.513-4.851,5.5-2.167.876-2.167.876-1.12,1.7.829.043,1.645.028,2.46.048,2.373.056,3.649,1.187,4.2,3.578a36.584,36.584,0,0,1,.8,8.745c.223.34-.155.014.157.25,4.857,3.666,8.436,8.694,13.165,12.454,2.375,1.887,4.806,3.768,7.368,5.423,1.349.871,0-.739.545-.713,1.5-.67,3.065-1.092,4.021-2.762.825-1.442,2.49-.965,3.888-.8,3.265,2.082,3.264,2.641-.032,7.358.5.726,1.3.372,1.952.534.94.233,2.352-.014,2.273,1.456a2.687,2.687,0,0,1-2.641,2.527c-1.028.128-1.932-.735-3-.425a3.765,3.765,0,0,0-2.039,3.989C881.875,300.462,882.3,301.824,880.652,302.142Z" transform="translate(-802.725 -173.388)" fill="#0d97df"/>
            <path id="Path_330" data-name="Path 330" d="M816.666,192.209a8.608,8.608,0,0,0-.416-5.491,39.453,39.453,0,0,0-.878-11.206l.038.079a6.125,6.125,0,0,1-.578-2.682c.018-8.393-1.513-16.749-.609-25.159.27-1.426.505-3.163,2.357-3.027,1.593.117,2.011,1.714,2.531,3.128,3.629,9.867,3.848,20.53,7.21,30.464,1.131,3.341,1.627,3.941,5.225,3.716.2-.013.412-.008.615-.031,8.272-.949,8.262-.95,9.045-9.225.387-4.089.36-8.215.338-12.288-.036-6.331,1.167-12.446,2.021-18.634a6.177,6.177,0,0,1,.412-1.8c.5-1.082,1.215-2.02,2.549-1.8,1.191.194,1.614,1.225,1.72,2.292.586,5.93,2.1,11.69,3.14,17.536,1.323,7.462,3.222,14.8,4.591,22.25.58,3.156.211,4.152-2.944,4.715-3.942.7-5.458,3.734-6.794,6.888a20.259,20.259,0,0,0-1.48,5.018c-.37,2.619-2.255,2.792-4.28,3.025s-3.927.409-4.912-1.966a17.507,17.507,0,0,0-2.832-4.749c-3.771-4.4-6.3-4.8-11.158-1.726C819.99,192.115,818.454,193.093,816.666,192.209Z" transform="translate(-806.641 -134.675)" fill="#0d97df"/>
            <path id="Path_331" data-name="Path 331" d="M819.911,188.723c6.414-4.1,12.83-1.563,15.356,6.335.61,1.91.957,2.784,2.981,1.81a2.775,2.775,0,0,1,1.514.031c2.125.367,2.871-.317,3.231-2.641.674-4.363,1.979-8.587,5.928-11.427a4.594,4.594,0,0,1,3.411-.925c2.424.28,3-1.646,2.074-2.769-1.8-2.179-1.265-4.7-1.687-6.965-1.049-5.64-2.335-11.244-3.52-16.843-.849-4.012-.951-8.21-2.586-12.1-.593-1.412-.208-3.241-.236-4.88-.015-.863-.039-1.769-1.166-1.768a1.552,1.552,0,0,0-1.571,1.587c-.427,5.635-1.988,11.093-2.046,16.827-.075,7.447-1,14.887-.912,22.353.022,1.8-1.311,2.137-2.319,2.28-2.7.382-5.392.685-8.091,1.129-4.456.734-4.97.181-6.049-5.054-.955-4.64-2.889-9.009-3.368-13.79a69.874,69.874,0,0,0-2.339-12.124c-.409-1.44-1.4-2.642-1.365-4.321.017-.9-.525-2.493-1.7-2.676-1.3-.2-.506,1.858-1.646,2.189-.8,4.877-.117,9.793-.4,14.681-.049.865.727,2.126-.827,2.548-.665-2.932-.379-5.925-1.128-8.945-.925-3.731,1.034-7.618,1.716-11.442.2-1.1.975-1.14,1.828-1.21a2.182,2.182,0,0,1,2.491,1.371c1.386,3.855,3.2,7.646,3.914,11.63,1.188,6.611,2.325,13.2,4.55,19.557,1.892,5.411,1.862,5.422,7.78,4.717,4.514-.537,3.9-.663,4.8-5.044,1.478-7.193.272-14.392.991-21.532a99.576,99.576,0,0,1,2.874-16.99c.5-1.773,1.8-2.423,3.536-1.249a5.838,5.838,0,0,1,2.587,4.94c-.268,6.386,2.079,12.268,3.126,18.386,1.3,7.618,3.166,15.139,4.592,22.739.352,1.874,1.142,2.242,2.836,2.341,5.879.345,9.816,5.314,10.437,11.23.942,8.993-4.491,12.4-12.016,15.382-1.3-.611-2.611-.1-3.923-.055-4.766.153-7.5-.7-10.318-7.1-.494-1.12-.912-2.393-2.265-1.716-1.828.913-4.592-1.359-5.722,2.007-1.149,3.419-3.207,6.223-7.214,6.765l-.254-.343c.24-1.723,1.835-2.444,2.718-3.694.177-.224.367-.435.56-.643a9.862,9.862,0,0,0,.086-9.284c-2.123-3.946-5.31-5.343-9.635-4.034C820.766,189.858,819.788,189.989,819.911,188.723Z" transform="translate(-805.599 -132.477)" fill="#070202"/>
            <path id="Path_332" data-name="Path 332" d="M837.032,381.968h4.048c-.855,1.411-1.952.8-2.621,1.231a2.5,2.5,0,0,0-1.267,2.594,1.55,1.55,0,0,0,.926,1.47c1.2.4,1.572-.559,2.055-1.354.369-.607.784-1.3,1.639-1.175.908.137.981.913,1.038,1.653a1.75,1.75,0,0,0,2,1.841,1.728,1.728,0,0,0,1.835-1.715c-.081-2.107,1.231-1.963,2.613-1.906,7.478.306,14.963-.36,22.456.315,1.993.179,4.146-.258,6.348-.27-.24,1.787-3.718,2.582-1.051,4.68.318.251.877.724.979.646,2.107-1.626,4.5-1.954,7.081-2.186.789-.071-.559-1.791-1.06-1.9-4.421-.952-3.709-4.9-3.978-7.618a65.8,65.8,0,0,1,.262-14.048c.432-3.716.89-7.892-2.274-11.1a1.968,1.968,0,0,1-.349-1.428,43.333,43.333,0,0,0-.938-12.49c-1.183-6.522-.677-13.346-3.3-19.586-.676-1.608-.173-3.226-.622-4.8a1.847,1.847,0,0,1,.91-2.378c.983-.377,1.75.272,2.257,1.146.217.712-.091.942-.766.834-1.258.354-1.18,1.366-.907,2.234a92.781,92.781,0,0,1,3.9,21.223c.212,2.908,1.039,5.769.959,8.753-.033,1.213.439,2.595,2.284,1.718.585-.162.833.2,1.018.656a6.728,6.728,0,0,1-.321,2.686c-.318,3.8.509,7.532.771,11.483a34.341,34.341,0,0,1,2.781-7.492c.846-1.962,2.473-3.219,4.058-4.515a5.627,5.627,0,0,0,3.167-3.037,27.555,27.555,0,0,1,5.017-3.411,10.783,10.783,0,0,0,2.03-.646c1.047-.617,2.825-.655,2.44-2.558-.277-1.365-2.81-2.407-4.371-1.868-.865.3-1.529,1.015-2.434,1.26a12.1,12.1,0,0,1-1.81.351c-1.013.044-2.337.833-2.545-1.055,3.405-1.847,6.639-4.238,10.921-2.435,2.27.957,3.893,2.471,3.96,4.864.058,2.091-1.971,2.442-3.623,3.086-6.7,2.615-12.22,6.9-15.437,13.338-1.317,2.637-1.068,6.155-2.751,8.779-2.307,3.595-2.2,7.462-2.334,11.456a4.388,4.388,0,0,0,2.961,4.7c1.523.607,3.045.992,2.816,2.928-.235,1.988-1.987,2.876-3.6,3.337-1.231.352-2.531.525-3.805.894-3.027.876-4.469-.02-5.732-3.256-.252-.647-.487-1.142-1.2-1.144q-11.235-.034-22.47-.037c-.847,0-1.53.06-1.96,1.046-1.286,2.94-3.17,3.468-6.09,1.886-.756-.41-1.383-1.17-2.48-.634-2.047,1-3.934.547-5.023-1.427C834.209,385.354,835.359,383.521,837.032,381.968Z" transform="translate(-814.675 -201.321)" fill="#0c0403"/>
            <path id="Path_333" data-name="Path 333" d="M810.8,349.894c3.575-4.987,5.483-10.781,7.912-16.323.688-1.571,1.263-3.2,2.093-4.7.391-.7.643-2.066,1.757-1.77a2.747,2.747,0,0,1,2.042,2.455,23.132,23.132,0,0,1-.109,2.767l-2.365-1.872c-2.214,4.835-4.64,9.872-6.815,15.015-.83,1.961-2.313,3.708-1.278,6.4.7,1.818-1.209,3.208-3.048,2.121-1.875-1.107-2.766-.247-3.425,1.041-.888,1.737-2.237,1.28-3.343.816-1.288-.539-.849-1.562-.435-2.757.449-1.3,1.222-2.8-.893-4.134-1.513-.955-.568-3.81.75-3.974,5.193-.646,5.832-4.851,6.976-8.4,1.218-3.777,3.081-7.41,3.29-11.493.009-.179.446-.336.684-.5,1.062,3.726-1.295,6.829-1.917,10.248a22.068,22.068,0,0,1-1.836,5.422c-1.182,2.492-1.9,5.521-5.594,5.685a1.833,1.833,0,0,0-1.753,1.829c.111,1.1,1.268.7,2.016.756.912.068,1.954-.121,1.753,1.354a2.85,2.85,0,0,1-.573,1.665c.558-.2.665-.893,1.241-.964l1.091-.125a1.064,1.064,0,0,1,1.152-.014C811.505,351.5,810.285,349.719,810.8,349.894Z" transform="translate(-802.117 -206.013)" fill="#0e0809"/>
            <path id="Path_334" data-name="Path 334" d="M838.194,339.2c.6.418,1.355.941,1.2,1.661-.744,3.517.606,6.879,1.038,10.22,1.041,8.067,1.355,16.141,1.981,24.213a83.776,83.776,0,0,0,1.529,12.285c.183.8.639,2.461-.762,2.518-1.53.063-.672-1.552-.92-2.411-.332-1.152.843-2.744-1.006-3.455-.043-.093-.126-.188-.122-.278.282-5.895-1.45-11.64-1.22-17.546a84.96,84.96,0,0,0-1.763-18.946C837.653,344.8,838.149,341.956,838.194,339.2Z" transform="translate(-815.826 -211.604)" fill="#0e0707"/>
            <path id="Path_335" data-name="Path 335" d="M827.658,243.877c-.477,2.114-2.123,2.416-3.9,2.538-1.385.1-2.851-.353-4.114.592-5.535-.412-8.082-4.588-9.2-8.924-1.134-4.421,1.322-8.458,4.7-11.617a.965.965,0,0,1,1.559.455c.124,1.8-1.226,2.953-1.977,4.353-2.248,4.185-2.071,6.918,1.151,10.582,2.4,2.726,5.405,2.933,8.629,1.549a3.642,3.642,0,0,1,1.8-.263,2.077,2.077,0,0,1,1.242.629Z" transform="translate(-805.198 -168.364)" fill="#0f0c0c"/>
            <path id="Path_336" data-name="Path 336" d="M883.049,277.665c-.981-2.538-.4-5.263-.978-7.868-.954-4.331-.871-4.345-5.31-4.416-.717-.011-1.432-.091-2.149-.139.3-2.934,2.784-1.3,4.037-2.192-.694-.173-1.726-.037-2.348-.855,2.263-1.088,2.9-1.741,5.422-5.556l1.873.554c.691-.244.819.1.715.685-.717.412-2.08.251-1.728,1.647.274,1.084,1.312.767,2.086.775,1.708.018,3.417-.032,5.126-.023.146,0,.29.236.587.5-1.941.124-3.747.141-5.521.393-.947.135-2.313.39-2.181,1.68a2.188,2.188,0,0,0,2.532,2.089c.985-.059,2.052-.332,2.993.3a1.5,1.5,0,0,1-2.2.557c-2.9-.411-2.984,1.192-2.532,3.376.469,2.265,1.331,4.545.309,6.889C883.859,276.737,884.421,277.644,883.049,277.665Z" transform="translate(-829.867 -180.003)" fill="#0e0c0e"/>
            <path id="Path_337" data-name="Path 337" d="M888.281,289.706a1.852,1.852,0,0,0,.738-1.61c.559,2.315,2.632,3.255,4.34,4.327a10.8,10.8,0,0,1,3.094,2.381c3.575,4.852,8.953,7.56,13.315,11.464.419.287.836.578,1.259.859s.98.558.68,1.169c-.394.8-.972.346-1.545.134-2.94-1.091-4.654-3.945-7.463-5.191-3.248-1.442-5.049-4.2-6.96-7a17.419,17.419,0,0,0-6.142-5.024A2.152,2.152,0,0,1,888.281,289.706Z" transform="translate(-835.099 -192.044)" fill="#140c0d"/>
            <path id="Path_338" data-name="Path 338" d="M933.117,322.174c1.537-.527,3.1,2.387,4.706-.142.87-1.37.636-1.845-.857-1.9-1.3-.05-2.606-.01-3.892-.01-.217-1.754,1.424-1.715,1.717-2.595.545-1.637,3.705-3.534-.3-4.933-.018-.006.149-.54.228-.827,3.073.143,3.919,1.468,2.7,4.234-.609,1.378-2,2.977,1.12,3.092a1.449,1.449,0,0,1,1.282,1.8c-.436,1.507-.746,3.431-2.494,3.861-1.338.328-3.021.758-4.243-.647A1.744,1.744,0,0,1,933.117,322.174Z" transform="translate(-852.143 -201.104)" fill="#161316"/>
            <path id="Path_339" data-name="Path 339" d="M826.653,264.459c.818.259,1.631.728,1.571,1.615-.141,2.11,1.124,2.352,3.018,2.136-2.021,1.443-2.215,2.27-1.259,4.714.806,2.063,1.828,5,1.265,7.726a1.208,1.208,0,0,1-1.447.117c-.554-1.813-1.328-3.583-1.086-5.552-1.556-.912-.358-2.687-1.2-3.824l-1.828-1.254q-.326-.2-.24-.439t.189-.243c1.875-1.783,1.5-2.865-1.013-3.182Z" transform="translate(-810.732 -182.996)" fill="#0d0a0c"/>
            <path id="Path_340" data-name="Path 340" d="M900.257,315.2l.766-.834a85.389,85.389,0,0,0,11.847,8.285,13.989,13.989,0,0,1,2.331,2.326c.3.792.343,1.439-.8,1.417C910.108,322.131,904.22,319.883,900.257,315.2Z" transform="translate(-839.683 -202.1)" fill="#161012"/>
            <path id="Path_341" data-name="Path 341" d="M813.435,169.958c1.144-4.577.163-9.232.517-13.836.088-1.151-.5-2.466.706-3.393-.06,6.134-.925,12.227.615,18.4.783,3.139.013,6.666-.055,10.018-1.338-.873-1.085-2.269-1.213-3.566C813.755,175.042,814.184,172.455,813.435,169.958Z" transform="translate(-806.449 -140.228)" fill="#2a1d1b"/>
            <path id="Path_342" data-name="Path 342" d="M911.013,366.333l-.651-.7c1.942-4.31,6.021-6.049,9.8-8.146.81,1.281,1.82.254,2.741.237-.426,2.768-3.322,2.475-4.825,3.907a6.137,6.137,0,0,0-3.655,2.442C913.361,364.939,912.72,366.446,911.013,366.333Z" transform="translate(-843.551 -218.607)" fill="#241d19"/>
            <path id="Path_343" data-name="Path 343" d="M832.995,290.809l1.447-.117c-.139,2.831,1.722,5.978-1.315,8.352l-.162-.21Q832.98,294.821,832.995,290.809Z" transform="translate(-813.925 -193.038)" fill="#26343f"/>
            <path id="Path_344" data-name="Path 344" d="M827.3,311.331c-1.851,2.538-2.246,6-5.051,7.934-.128-3.669,2.936-5.759,4.3-8.69C827.176,310.451,827.5,310.627,827.3,311.331Z" transform="translate(-809.821 -200.634)" fill="#241c1e"/>
            <path id="Path_345" data-name="Path 345" d="M816.137,198.638a2.183,2.183,0,0,1,1.3,2.49c-.24,2.9.851,5.87-.428,8.715C816.558,206.122,815.492,202.447,816.137,198.638Z" transform="translate(-807.406 -157.802)" fill="#1c0606"/>
            <path id="Path_346" data-name="Path 346" d="M931.419,328.63l-.035,1.926c-1.665.945-.793,2.543-.946,3.853s-.143,2.6-2.067,1.905a1.957,1.957,0,0,0,.623-1.94A6.265,6.265,0,0,1,931.419,328.63Z" transform="translate(-850.444 -207.56)" fill="#283541"/>
            <path id="Path_347" data-name="Path 347" d="M892.726,271.12l2.2-.557c1.779,1.17,4.324-.189,5.9,1.823-2.993.738-5.659-1.147-8.549-.981-.032,0-.075-.178-.113-.273Z" transform="translate(-836.583 -185.333)" fill="#141414"/>
            <path id="Path_348" data-name="Path 348" d="M826.678,275.691c1.287,1,.358,2.688,1.2,3.824-1.92-.406-3.318,1.918-5.443.957C823.37,278.448,827.983,279.594,826.678,275.691Z" transform="translate(-809.894 -187.296)" fill="#292a2a"/>
            <path id="Path_349" data-name="Path 349" d="M823.088,272.554l.051.682c-1.493,1.27-3.456,1.162-5.174,1.834A6.138,6.138,0,0,1,823.088,272.554Z" transform="translate(-808.183 -186.095)" fill="#454545"/>
            <path id="Path_350" data-name="Path 350" d="M819.56,226.177c-.257-.584-.8-.646-1.33-.717a1.675,1.675,0,0,1,.078-.568L822.6,223.6c.448.746,1.265.461,1.9.681C823.438,226.446,821.471,226.238,819.56,226.177Z" transform="translate(-808.284 -167.358)" fill="#2c2a2e"/>
            <path id="Path_351" data-name="Path 351" d="M923.174,332.974c.653-.254.657-.874.8-1.417q.919,2.928,1.839,5.855C923,337.079,924.479,334.2,923.174,332.974Z" transform="translate(-848.455 -208.68)" fill="#354754"/>
            <path id="Path_352" data-name="Path 352" d="M829.968,308.783l-.751-.756c.785-1.373,1.06-3.032,2.313-4.144,0,0,.165.218.164.214A9.816,9.816,0,0,1,829.968,308.783Z" transform="translate(-812.49 -198.087)" fill="#2b313a"/>
            <path id="Path_353" data-name="Path 353" d="M889.882,257.874l-.715-.685c1.912-.893,3.908-.508,5.918-.288C893.457,257.778,891.462,256.826,889.882,257.874Z" transform="translate(-835.438 -179.998)" fill="#4b4b4b"/>
            <path id="Path_354" data-name="Path 354" d="M860.927,354.309c-.9-6.617-.315-13.248-.256-19.879.04-4.492-.3-8.987-.436-13.481-.043-1.427.026-2.858.044-4.287.947-.22,1.451.307,1.817,1.072.292,5.923,1.155,11.822.593,17.784-.521,5.533-.01,11.093-.268,16.637C862.18,353.049,862.291,354.194,860.927,354.309Z" transform="translate(-824.358 -202.959)" fill="#202623"/>
            <path id="Path_355" data-name="Path 355" d="M855.641,267.19l-.158.049-.153-.062c-1.536-.127-1.536-.127-.846-2.657a14.447,14.447,0,0,1-.175-2.439c.14-1.521-.064-2.6-1.945-2.7-1.6-.089-2.227-1.13-2.286-2.7a2.815,2.815,0,0,1,2.26-3.187,10.606,10.606,0,0,1,4.242-.069c2.115.436,2.645,2.4.688,4.539-2.572,2.81-2.291,5.478-.84,8.471C856.528,267.068,856.41,267.47,855.641,267.19Z" transform="translate(-820.474 -178.704)" fill="#1a0809"/>
            <path id="Path_356" data-name="Path 356" d="M860.309,313.136l-1.473-.731c-.6-1.294-1.109-2.639-1.815-3.871-1.305-2.278-.235-2.9,1.873-2.918.51,0,1.019-.035,1.529-.053,6.781-.242,6.781-.242,4.54,6.229-.55.62.17,1.952-1.186,2.124C862.586,313.811,861.339,313.954,860.309,313.136Z" transform="translate(-822.915 -198.703)" fill="#101617"/>
            <path id="Path_357" data-name="Path 357" d="M868.069,317.552l1.054-1.853c.974,9.329,3.147,18.461,4.563,27.717a1.212,1.212,0,0,1-.995.291,1.994,1.994,0,0,1-1.185-1.665q-2.313-10.937-4.1-21.973A2.353,2.353,0,0,1,868.069,317.552Z" transform="translate(-827.075 -202.61)" fill="#233841"/>
            <path id="Path_358" data-name="Path 358" d="M875.665,360.724l1-.118c1.488,5.374,2.547,10.762.52,16.248a2.527,2.527,0,0,1-1.241-1.671c.248-4.172.439-8.337-.755-12.433A2.267,2.267,0,0,1,875.665,360.724Z" transform="translate(-830.06 -219.799)" fill="#273d46"/>
            <path id="Path_359" data-name="Path 359" d="M852.024,271.513c.65.768-1.129,2.31.846,2.656-1.987,1.376-3.852,3.155-6.577,2.443a3.119,3.119,0,0,1-2.646-2.518C847.657,276.412,850.5,275.659,852.024,271.513Z" transform="translate(-818.014 -185.697)" fill="#091c29"/>
            <path id="Path_360" data-name="Path 360" d="M875.968,265.578a4.048,4.048,0,0,1,1.2.056c1.088.394,3.192-1.07,3.176.909-.015,1.749-2.16.6-3.3.983-.947.319-2.324-.5-2.77,1.1C873.253,266.713,873.636,266.022,875.968,265.578Z" transform="translate(-829.534 -183.387)" fill="#4998ca"/>
            <path id="Path_361" data-name="Path 361" d="M859.093,274.728l.786-.752c2.912,2.257,5.591,1.451,8.144-1.039C866.635,277.154,863.291,277.666,859.093,274.728Z" transform="translate(-823.926 -186.242)" fill="#091c29"/>
            <path id="Path_362" data-name="Path 362" d="M861.365,376.454c.752-.475.463-1.334.733-1.987a1.28,1.28,0,0,1,1.12,1.263c.321,2.586,1.715,4.756,2.667,7.1a1.037,1.037,0,0,1-.826.977C862.48,382.032,861.572,379.42,861.365,376.454Z" transform="translate(-824.796 -225.105)" fill="#314e58"/>
            <path id="Path_363" data-name="Path 363" d="M867.35,387.712l.725-.677c2.444.631,4.171-.416,5.512-2.361l.63,1.392C872.637,390.344,871.377,390.646,867.35,387.712Z" transform="translate(-827.087 -229.012)" fill="#243940"/>
            <path id="Path_364" data-name="Path 364" d="M810.044,366.272a4.941,4.941,0,0,1-1.726,3c-.068.056-.641-.256-.659-.431-.156-1.45.922-2.289,1.718-3.264Z" transform="translate(-804.232 -221.7)" fill="#564943"/>
            <path id="Path_365" data-name="Path 365" d="M815.079,365.587l1.908,2.484c-2.224.822-2.14-2.063-3.69-1.918Z" transform="translate(-806.397 -221.706)" fill="#4f4846"/>
            <path id="Path_366" data-name="Path 366" d="M843.955,264.854a10.892,10.892,0,0,1-6.618.085A11.393,11.393,0,0,1,843.955,264.854Z" transform="translate(-815.598 -182.975)" fill="#170706"/>
            <path id="Path_367" data-name="Path 367" d="M887.662,225.513c.968,8.518-10.7,13.294-15.792,11.965-2.573-.672-6.046-6.03-5.857-8.958a30.686,30.686,0,0,1,1.812-7.846,4.077,4.077,0,0,1,2.216-2.536c2.5-1.285,5.171-2.066,7.745-3.1,2.371-.951,8,2.3,8.781,5.175C887.053,222,888.478,223.672,887.662,225.513Z" transform="translate(-826.572 -164.016)" fill="#fcfcfc"/>
            <path id="Path_368" data-name="Path 368" d="M817.89,226.214l4.937-1.892c4.833-1.47,7.142-.454,9.831,4.326,1.471,3.592,1.712,7.117-.561,10.509l0,0c-.527.191-.82-.11-1.069-.5-.354-.733-.344-1.578-.691-2.313a2.692,2.692,0,0,0-2.869-1.779,2.586,2.586,0,0,0-2.424,2.329,2.712,2.712,0,0,0,1.668,2.939,11.743,11.743,0,0,1,2.22.941c.559,1.253-.573,1.471-1.216,1.99-2.845.8-5.547,2.093-8.655.436-4-2.134-6.491-7.752-4.483-11.684C815.509,229.688,816.256,227.643,817.89,226.214Z" transform="translate(-806.614 -167.395)" fill="#fbfbfb"/>
            <path id="Path_369" data-name="Path 369" d="M843.4,242.225c1.654-3.424,1.513-6.945.561-10.509C846.193,234.366,845.895,239.958,843.4,242.225Z" transform="translate(-817.92 -170.463)" fill="#b2aba7"/>
            <path id="Path_370" data-name="Path 370" d="M836.3,251.9l1.256-1.857a2.71,2.71,0,0,1,2.418-2.472l.706.726c-.47,1.708-2.581,2-3.133,3.643Z" transform="translate(-815.203 -176.532)" fill="#b2aba7"/>
            <path id="Path_371" data-name="Path 371" d="M910.973,370.318l2.793-2.417c1.934,1.367,4.7,1.837,5.178,4.78-1.2,1.545-2.856,2.711-3.759,4.5-2.538-.494-3.128-3.138-4.918-4.457C910.141,371.819,911.349,371.3,910.973,370.318Z" transform="translate(-843.511 -222.592)" fill="#e8cd5a"/>
            <path id="Path_372" data-name="Path 372" d="M910.105,375.722c2.9.1,2.963,3.319,4.919,4.456l-3.476,9.391C911.244,384.921,909.088,380.481,910.105,375.722Z" transform="translate(-843.349 -225.585)" fill="#48a2da"/>
            <path id="Path_373" data-name="Path 373" d="M932.929,356.729c1.841-2.529,4.111-2.066,6.441-.876a2.628,2.628,0,0,1,1.68,2.361,2.3,2.3,0,0,1-1.809,2.195c-1.213.451-2.319,1.386-3.76.97C933.635,360.374,931.657,359.443,932.929,356.729Z" transform="translate(-852.034 -217.612)" fill="#3caaee"/>
            <path id="Path_374" data-name="Path 374" d="M921.12,370.891c-1.182-2.183-4.287-2.284-5.178-4.781a4.619,4.619,0,0,1,4.13-2.885c3.086.054,3.548,2.528,4.337,4.7C924.136,369.827,922.878,370.636,921.12,370.891Z" transform="translate(-845.687 -220.801)" fill="#40abec"/>
            <path id="Path_375" data-name="Path 375" d="M926.971,365.875c-1.884-1.162-2-3.955-4.337-4.7,1.307-1.627,3.68-1.647,4.967-3.3l1.541,0c-.386,2.228,1.612,3.149,2.55,4.65C930.465,364.122,928.326,364.448,926.971,365.875Z" transform="translate(-848.248 -218.751)" fill="#e7ce61"/>
            <path id="Path_376" data-name="Path 376" d="M871.657,359.024c-1.475,4.007-1.787,4.14-5.512,2.361-2.6-2.3-2.876-5.6-3.685-8.661-.23-10.732.564-21.468-.141-32.2a17.662,17.662,0,0,1,.233-2.73c1.216.047,2.526-.564,3.6.508,1.067,8.745,2.794,17.372,4.612,25.983C871.749,349.157,872.665,354.033,871.657,359.024Z" transform="translate(-825.157 -203.362)" fill="#f7e596"/>
            <path id="Path_377" data-name="Path 377" d="M855.217,256.544c.791.075,1.8-.031,1.593,1.218-.179,1.072-1.055,1.394-2.045,1.418-.939.023-1.577-.291-1.526-1.382C853.3,256.427,854.318,256.588,855.217,256.544Z" transform="translate(-821.684 -179.967)" fill="#9e3b3a"/>
            <path id="Path_378" data-name="Path 378" d="M863.133,307.585c1.106.256,2.932-1.184,2.861.952-.048,1.442.185,3.64-2.422,3.94-2.5.286-3.511-1.263-3.677-3.147C859.654,306.589,862.171,308.351,863.133,307.585Z" transform="translate(-824.227 -199.413)" fill="#e9d78c"/>
            <path id="Path_379" data-name="Path 379" d="M871.343,238.83a3.919,3.919,0,0,1,3.647-4.145,3.871,3.871,0,0,1,3.742,4.04c-.083,2.215-1.213,3.692-3.485,3.955C873.226,242.915,871.4,241.03,871.343,238.83Z" transform="translate(-828.615 -171.6)" fill="#040404"/>
            <path id="Path_380" data-name="Path 380" d="M837.668,244.543l-2.418,2.472c-3.776-.012-5.887-2.319-4.6-5.072a3.4,3.4,0,0,1,3.933-2.195C837.093,240.283,838,242.068,837.668,244.543Z" transform="translate(-812.894 -173.505)" fill="#030303"/>
          </g>
        </g>
      </g>
      <path id="Path_381" data-name="Path 381" d="M814.544,203.9l.8,10.636a44.511,44.511,0,0,0,4.806-1.734c.079-.236,28.287-3.467,28.287-3.467l6.089.909a7.488,7.488,0,0,1,3.958-.753c1.693.363,1.773-2.879,1.773-2.879Z" transform="translate(-2.178)" fill="#0d97df"/>
    </g>
  </g>
</svg>
