<svg xmlns="http://www.w3.org/2000/svg" width="66.106" height="60.639" viewBox="0 0 66.106 60.639">
  <path id="Icon_material-notifications-none" data-name="Icon material-notifications-none" d="M38.8,63.889c4.51,0,8.2-2.776,8.2-6.168H30.6C30.6,61.114,34.293,63.889,38.8,63.889Zm24.6-18.5V29.965c0-9.468-6.684-17.394-18.452-19.491v-2.1c0-2.56-2.747-4.626-6.151-4.626s-6.151,2.066-6.151,4.626v2.1C20.925,12.57,14.2,20.466,14.2,29.965v15.42L6,51.553v3.084H71.606V51.553Zm-8.2,3.084H22.4v-18.5c0-7.648,6.192-13.878,16.4-13.878s16.4,6.23,16.4,13.878Z" transform="translate(-5.75 -3.5)" fill="#0d97df" stroke="#fff" stroke-width="0.5"/>
</svg>
