<svg xmlns="http://www.w3.org/2000/svg" width="56.572" height="52.809" viewBox="0 0 56.572 52.809">
  <g id="Icon_material-sms" data-name="Icon material-sms" transform="translate(-0.997 -1)" fill="none">
    <path d="M50.313,3H8.257C5.366,3,3.026,5.087,3.026,7.637L3,49.375,13.514,40.1h36.8c2.891,0,5.257-2.087,5.257-4.637V7.637C55.57,5.087,53.2,3,50.313,3ZM21.4,23.869H16.142V19.231H21.4Zm10.514,0H26.656V19.231h5.257Zm10.514,0H37.17V19.231h5.257Z" stroke="none"/>
    <path d="M 8.256946563720703 3 C 5.365627288818359 3 3.026279449462891 5.086868286132813 3.026279449462891 7.637489318847656 L 3 49.3748779296875 L 13.51390838623047 40.09989929199219 L 50.31261825561523 40.09989929199219 C 53.20394897460938 40.09989929199219 55.569580078125 38.01303100585938 55.569580078125 35.46241760253906 L 55.569580078125 7.637489318847656 C 55.569580078125 5.086868286132813 53.20394897460938 3 50.31261825561523 3 L 8.256946563720703 3 M 21.39934921264648 23.86869812011719 L 16.14238739013672 23.86869812011719 L 16.14238739013672 19.23120880126953 L 21.39934921264648 19.23120880126953 L 21.39934921264648 23.86869812011719 M 31.91326904296875 23.86869812011719 L 26.65630722045898 23.86869812011719 L 26.65630722045898 19.23120880126953 L 31.91326904296875 19.23120880126953 L 31.91326904296875 23.86869812011719 M 42.42717742919922 23.86869812011719 L 37.17022705078125 23.86869812011719 L 37.17022705078125 19.23120880126953 L 42.42717742919922 19.23120880126953 L 42.42717742919922 23.86869812011719 M 8.256946563720703 1 L 50.31261825561523 1 C 54.31411743164063 1 57.56957626342773 3.977569580078125 57.56957626342773 7.637489318847656 L 57.56957626342773 35.46241760253906 C 57.56957626342773 39.12233734130859 54.31411743164063 42.09989929199219 50.31261825561523 42.09989929199219 L 14.26999664306641 42.09989929199219 L 4.323078155517578 50.87469863891602 L 0.9972076416015625 53.80865859985352 L 1 49.37361907958984 L 1.026279449462891 7.63623046875 C 1.026279449462891 3.977569580078125 4.269947052001953 1 8.256946563720703 1 Z M 19.39934921264648 21.23120880126953 L 18.14238739013672 21.23120880126953 L 18.14238739013672 21.86869812011719 L 19.39934921264648 21.86869812011719 L 19.39934921264648 21.23120880126953 Z M 29.91326904296875 21.23120880126953 L 28.65630722045898 21.23120880126953 L 28.65630722045898 21.86869812011719 L 29.91326904296875 21.86869812011719 L 29.91326904296875 21.23120880126953 Z M 40.42717742919922 21.23120880126953 L 39.17022705078125 21.23120880126953 L 39.17022705078125 21.86869812011719 L 40.42717742919922 21.86869812011719 L 40.42717742919922 21.23120880126953 Z" stroke="none" fill="#0d97df"/>
  </g>
</svg>
